<svg width="19" height="24" viewBox="0 0 19 24" fill="none" xmlns="http://www.w3.org/2000/svg">
<path fill-rule="evenodd" clip-rule="evenodd" d="M5.27778 5.59748V4.36364C5.27778 1.95367 7.16813 0 9.5 0C11.8319 0 13.7222 1.95367 13.7222 4.36364V5.59748C14.4535 5.64891 15.1695 5.71423 15.8703 5.79344C17.0586 5.92776 18.0111 6.87078 18.192 8.09195C18.7304 11.7277 19 14.8418 19 17.4368C19 18.4636 18.9787 19.3572 18.9361 20.1184C18.83 22.0113 17.3958 23.537 15.568 23.7014C13.3548 23.9004 11.3322 24 9.5 24C7.66699 24 5.64346 23.9003 3.42901 23.7011C1.59894 23.5365 0.163901 22.0072 0.0607544 20.1117C0.0202047 19.3665 0 18.4928 0 17.4898C0 14.8877 0.270054 11.7567 0.809308 8.0941C0.989255 6.87187 1.94221 5.92761 3.13136 5.79325C3.83163 5.71413 4.5471 5.64887 5.27778 5.59748ZM5.27781 6.69097V7.71011C5.27781 7.71655 5.27792 7.72297 5.27813 7.72936C4.663 7.95391 4.22225 8.56012 4.22225 9.27273C4.22225 10.1765 4.93114 10.9091 5.80559 10.9091C6.68004 10.9091 7.38892 10.1765 7.38892 9.27273C7.38892 8.56012 6.94817 7.95391 6.33304 7.72936C6.33326 7.72297 6.33337 7.71655 6.33337 7.71011V6.6257C7.35877 6.57221 8.41432 6.54546 9.50003 6.54546C10.5857 6.54546 11.6413 6.57221 12.6667 6.6257V7.66787C12.6667 7.6883 12.6678 7.70847 12.6699 7.72831C12.0533 7.95201 11.6111 8.55901 11.6111 9.27273C11.6111 10.1765 12.32 10.9091 13.1945 10.9091C14.0689 10.9091 14.7778 10.1765 14.7778 9.27273C14.7778 8.55901 14.3357 7.95201 13.7191 7.72831C13.7212 7.70847 13.7223 7.6883 13.7223 7.66787V6.69097C14.4144 6.74059 15.0922 6.8029 15.7556 6.87789C16.4686 6.95848 17.0401 7.52429 17.1486 8.257C17.6795 11.8419 17.9445 14.9027 17.9445 17.4368C17.9445 18.4439 17.9237 19.3169 17.8823 20.0553C17.8065 21.4074 16.7821 22.4972 15.4766 22.6146C13.2924 22.811 11.3001 22.9091 9.50003 22.9091C7.69919 22.9091 5.7059 22.8109 3.52057 22.6143C2.21338 22.4967 1.18835 21.4044 1.11468 20.0504C1.07533 19.3274 1.05559 18.4736 1.05559 17.4898C1.05559 14.9483 1.32107 11.8703 1.85288 8.25821C1.96085 7.52487 2.53263 6.95832 3.24612 6.8777C3.90905 6.80279 4.58628 6.74055 5.27781 6.69097ZM5.80557 8.72725C6.09706 8.72725 6.33335 8.97145 6.33335 9.2727C6.33335 9.57395 6.09706 9.81816 5.80557 9.81816C5.51409 9.81816 5.27779 9.57395 5.27779 9.2727C5.27779 8.97145 5.51409 8.72725 5.80557 8.72725ZM13.7222 9.2727C13.7222 8.97145 13.4859 8.72725 13.1944 8.72725C12.903 8.72725 12.6667 8.97145 12.6667 9.2727C12.6667 9.57395 12.903 9.81816 13.1944 9.81816C13.4859 9.81816 13.7222 9.57395 13.7222 9.2727ZM6.33333 4.36365V5.53343C7.36001 5.48084 8.41556 5.45455 9.5 5.45455C10.5844 5.45455 11.64 5.48084 12.6667 5.53343V4.36365C12.6667 2.55617 11.2489 1.09092 9.5 1.09092C7.7511 1.09092 6.33333 2.55617 6.33333 4.36365Z" fill="white"/>
</svg>
