<svg width="40" height="28" viewBox="0 0 40 28" fill="none" xmlns="http://www.w3.org/2000/svg">
<path fill-rule="evenodd" clip-rule="evenodd" d="M1.09152 2.99581C0.541548 3.04632 0.0547643 2.64142 0.00425587 2.09145C-0.0462525 1.54148 0.358641 1.0547 0.908612 1.00419C8.19626 0.334905 14.5486 0 19.9676 0C25.3864 0 31.7602 0.334888 39.091 1.00414C39.641 1.05435 40.0461 1.54092 39.9959 2.09092C39.9457 2.64091 39.4591 3.04607 38.9091 2.99586C31.635 2.33178 25.3205 2 19.9676 2C14.6148 2 8.32213 2.33176 1.09152 2.99581ZM38.9091 25.0041C39.4591 24.9539 39.9457 25.3591 39.9959 25.9091C40.0461 26.4591 39.641 26.9456 39.091 26.9959C31.7602 27.6651 25.3864 28 19.9676 28C14.5486 28 8.19626 27.6651 0.908612 26.9958C0.358641 26.9453 -0.0462525 26.4585 0.00425587 25.9085C0.0547643 25.3586 0.541548 24.9537 1.09152 25.0042C8.32213 25.6682 14.6148 26 19.9676 26C25.3205 26 31.635 25.6682 38.9091 25.0041ZM6.52166e-05 14C6.52166e-05 14.5523 0.44778 15 1.00007 15H38.9987C39.551 15 39.9987 14.5523 39.9987 14C39.9987 13.4477 39.551 13 38.9987 13H1.00007C0.44778 13 6.52166e-05 13.4477 6.52166e-05 14Z" fill="white"/>
</svg>
