<svg width="14" height="14" viewBox="0 0 14 14" fill="none" xmlns="http://www.w3.org/2000/svg">
<path fill-rule="evenodd" clip-rule="evenodd" d="M7 0C3.13347 0 0 3.13373 0 7C0 10.8665 3.13373 14 7 14C10.8665 14 14 10.8663 14 7C14 3.13347 10.8663 0 7 0ZM0.636393 6.99999C0.636393 10.5151 3.4852 13.3636 7.00003 13.3636C10.5151 13.3636 13.3637 10.5148 13.3637 6.99999C13.3637 3.48492 10.5149 0.636353 7.00003 0.636353C3.48497 0.636353 0.636393 3.48516 0.636393 6.99999ZM7.31821 6.04542V5.76735C7.86714 5.90864 8.27275 6.40694 8.27275 6.99998C8.27275 7.70289 7.70293 8.27271 7.00002 8.27271C6.40698 8.27271 5.90868 7.8671 5.76739 7.31817H6.04551C6.25484 7.31817 6.36088 7.16324 6.36364 7.00627C6.36699 7.35484 6.6506 7.63637 6.99997 7.63637C7.35142 7.63637 7.63633 7.35147 7.63633 7.00001C7.63633 6.64856 7.35142 6.36365 6.99997 6.36365C6.65062 6.36365 6.36701 6.64516 6.36364 6.99372C6.36089 6.83675 6.25485 6.6818 6.04551 6.6818H5.76739C5.8825 6.23456 6.2346 5.88246 6.68184 5.76735V6.04542C6.68184 6.46966 7.31821 6.46966 7.31821 6.04542ZM6.36364 6.99372L6.36361 7.00001L6.36364 7.00627L6.36364 6.99372ZM5.76739 6.6818C5.74122 6.7835 5.72729 6.89011 5.72729 6.99998C5.72729 7.10985 5.74122 7.21647 5.76739 7.31817H2.86363C2.43939 7.31817 2.43939 6.6818 2.86363 6.6818H5.76739ZM6.68184 5.76735V1.91063C6.68184 1.48639 7.31821 1.48639 7.31821 1.91063V5.76735C7.21651 5.74118 7.10989 5.72725 7.00002 5.72725C6.89016 5.72725 6.78354 5.74118 6.68184 5.76735Z" fill="white"/>
</svg>
