<svg width="40" height="40" viewBox="0 0 40 40" fill="none" xmlns="http://www.w3.org/2000/svg">
<rect x="1" y="1" width="38" height="38" rx="4" stroke="white" stroke-width="2"/>
<path d="M26.4355 7.01416H13.5646C9.95134 7.01416 7.01196 9.95354 7.01196 13.5668V26.4376C7.01196 30.0513 9.95134 32.9902 13.5646 32.9902H26.4355C30.0491 32.9902 32.988 30.0513 32.988 26.4376V13.5668C32.988 9.95354 30.0491 7.01416 26.4355 7.01416ZM30.1614 26.4377C30.1614 28.4922 28.4899 30.1637 26.4355 30.1637H13.5646C11.5105 30.1637 9.83897 28.4922 9.83897 26.4377V13.5668C9.83897 11.5127 11.5105 9.84117 13.5646 9.84117H26.4355C28.4899 9.84117 30.1614 11.5126 30.1614 13.5668V26.4377Z" fill="white"/>
<path d="M26.9054 14.6957C26.0321 14.6957 25.322 13.9856 25.322 13.1128C25.322 12.2399 26.0321 11.5298 26.9054 11.5298C27.7782 11.5298 28.4883 12.2399 28.4883 13.1128C28.4883 13.9856 27.7782 14.6957 26.9054 14.6957Z" fill="white"/>
<path d="M19.9997 13.312C16.3112 13.312 13.3098 16.3134 13.3098 20.0019C13.3098 23.6909 16.3112 26.6922 19.9997 26.6922C23.6887 26.6922 26.69 23.6909 26.69 20.0019C26.69 16.3135 23.6887 13.312 19.9997 13.312ZM19.9997 23.8658C17.8703 23.8658 16.1363 22.1322 16.1363 20.002C16.1363 17.8726 17.8703 16.1394 19.9997 16.1394C22.1299 16.1394 23.8627 17.8726 23.8627 20.002C23.8627 22.1321 22.1299 23.8658 19.9997 23.8658Z" fill="white"/>
</svg>
