<svg width="28" height="24" viewBox="0 0 28 24" fill="none" xmlns="http://www.w3.org/2000/svg">
<path fill-rule="evenodd" clip-rule="evenodd" d="M0 7.61121C0 3.40765 3.43391 0 7.66986 0C10.2466 0 12.593 1.27262 14 3.31147C15.407 1.27262 17.7534 0 20.3301 0C24.5661 0 28 3.40765 28 7.61121C28 11.2768 26.1041 14.7405 22.7249 18.1263C21.0599 19.7946 18.7241 21.5838 15.7152 23.4999C14.6698 24.1656 13.3295 24.1668 12.2829 23.5028C9.2937 21.6064 6.95829 19.8159 5.27472 18.1259C1.87137 14.7096 0 11.2848 0 7.61121ZM13.4276 4.84112C12.3649 2.67034 10.1451 1.263 7.66986 1.263C4.13682 1.263 1.27273 4.10519 1.27273 7.61121C1.27273 10.8935 2.98969 14.0357 6.17982 17.238C7.78926 18.8535 10.0528 20.5889 12.9685 22.4387C13.5964 22.8371 14.4006 22.8364 15.0278 22.437C17.9643 20.567 20.2294 18.8319 21.8206 17.2376C24.9861 14.0658 26.7273 10.8849 26.7273 7.61121C26.7273 4.10519 23.8632 1.263 20.3301 1.263C17.8549 1.263 15.6351 2.67034 14.5724 4.84112C14.3403 5.31519 13.6597 5.31519 13.4276 4.84112Z" fill="white"/>
</svg>
