<svg width="29" height="21" viewBox="0 0 29 21" fill="none" xmlns="http://www.w3.org/2000/svg">
<path fill-rule="evenodd" clip-rule="evenodd" d="M3.38613 0.489132C7.69989 0.163129 11.3969 0 14.4786 0C17.5626 0 21.2736 0.163381 25.6129 0.489887C27.1906 0.608594 28.4609 1.827 28.6391 3.39239C28.8798 5.50834 29 7.87732 29 10.5C29 12.6414 28.9199 14.6137 28.7594 16.417C28.5595 18.6638 26.751 20.4337 24.4914 20.5938C20.6723 20.8645 17.3564 21 14.5427 21C11.7215 21 8.37787 20.8638 4.51071 20.5917C2.25007 20.4326 0.440202 18.6622 0.24033 16.4145C0.0800322 14.6118 0 12.6404 0 10.5C0 7.87695 0.120188 5.50768 0.361043 3.3915C0.539153 1.82654 1.80887 0.60833 3.38613 0.489132ZM2.29916 2.30996C2.28509 2.33095 2.26751 2.35678 2.24558 2.38889C2.24187 2.39435 2.2379 2.40023 2.23396 2.40607C2.21708 2.43109 2.20082 2.4552 2.20825 2.44148C1.8904 3.02844 2.11061 3.76083 2.70012 4.07731L13.5132 9.88243C13.8275 10.0512 14.1389 10.1269 14.4747 10.1175C14.4774 10.1174 14.4801 10.1173 14.4829 10.1172C14.4885 10.1171 14.4942 10.117 14.4999 10.117C14.5085 10.117 14.5169 10.1172 14.5253 10.1175C14.8611 10.1269 15.1725 10.0512 15.4868 9.88243L26.2999 4.07731C26.8894 3.76083 27.1096 3.02844 26.7918 2.44148C26.7992 2.45523 26.7828 2.43097 26.7665 2.40679C26.7628 2.40123 26.759 2.39567 26.7556 2.39058C26.7337 2.35853 26.7162 2.33281 26.7022 2.31191C26.3842 2.02102 25.9703 1.83302 25.5135 1.79866C21.205 1.47447 17.5262 1.3125 14.4786 1.3125C11.4334 1.3125 7.7687 1.4742 3.48589 1.79787C3.02994 1.83233 2.61683 2.01985 2.29916 2.30996ZM27.4596 4.84974C27.3026 4.99669 27.1241 5.12595 26.9255 5.23258L16.1124 11.0377C15.6007 11.3124 15.0651 11.4436 14.5 11.4298C13.9349 11.4436 13.3993 11.3124 12.8876 11.0377L2.07452 5.23258C1.87589 5.12594 1.69736 4.99669 1.54039 4.84974C1.39233 6.57198 1.31818 8.45552 1.31818 10.5C1.31818 12.6033 1.39666 14.5363 1.55338 16.2987C1.69614 17.9043 2.9889 19.1688 4.60365 19.2824C8.44187 19.5526 11.7553 19.6875 14.5427 19.6875C17.3225 19.6875 20.6079 19.5533 24.3978 19.2846C26.0118 19.1702 27.3036 17.906 27.4464 16.3012C27.6033 14.5381 27.6818 12.6043 27.6818 10.5C27.6818 8.45552 27.6077 6.57198 27.4596 4.84974Z" fill="white"/>
</svg>
