<svg width="63" height="50" viewBox="0 0 63 50" fill="none" xmlns="http://www.w3.org/2000/svg">
<path d="M61.95 0H42C41.4201 0 40.95 0.466406 40.95 1.04167V4.16667H37.8C37.2201 4.16667 36.75 4.63307 36.75 5.20833V17.0646L29.1522 20.8333H1.05C0.470137 20.8333 0 21.2997 0 21.875V48.9583C0 49.5336 0.470137 50 1.05 50H22.05C22.6299 50 23.1 49.5336 23.1 48.9583V46.0208L34.4767 47.9021C34.534 47.9116 34.592 47.9164 34.65 47.9167H50.4C51.8938 47.912 53.2717 47.1181 54.0162 45.8333H57.75C58.3299 45.8333 58.8 45.3669 58.8 44.7917V41.6667H61.95C62.5299 41.6667 63 41.2003 63 40.625V1.04167C63 0.466406 62.5299 0 61.95 0ZM21 47.9167H2.1V22.9167H21V47.9167ZM43.05 2.08333H60.9V24.8792C60.8806 24.2221 60.7034 23.5602 60.3515 22.9496C59.982 22.3085 59.4463 21.777 58.8 21.4104V5.20833C58.8 4.63307 58.3299 4.16667 57.75 4.16667H43.05V2.08333ZM38.85 6.25H56.7V20.8333H54.6V11.4583C54.6 10.8831 54.1299 10.4167 53.55 10.4167C52.9701 10.4167 52.5 9.95026 52.5 9.375C52.5 8.79974 52.0299 8.33333 51.45 8.33333H44.1C43.5201 8.33333 43.05 8.79974 43.05 9.375C43.05 9.95026 42.5799 10.4167 42 10.4167C41.4201 10.4167 40.95 10.8831 40.95 11.4583V20.8333H38.85V6.25ZM52.5 12.3219V20.8333H43.05V12.3219C43.946 12.0052 44.6512 11.3056 44.9704 10.4167H50.5795C50.8988 11.3056 51.604 12.0052 52.5 12.3219ZM56.7 43.75H54.6C54.6008 42.9245 54.3532 42.1174 53.8891 41.4323C56.078 40.6707 57.2301 38.293 56.4624 36.1215C56.3452 35.7898 56.1862 35.4743 55.9892 35.1823C56.2363 35.0936 56.4744 34.9816 56.7 34.8479V43.75ZM56.7 27.0833H52.5C51.9201 27.0833 51.45 27.5497 51.45 28.125C51.45 28.7003 51.9201 29.1667 52.5 29.1667H54.6C55.7599 29.1667 56.7 30.0993 56.7 31.25C56.7 32.4007 55.7599 33.3333 54.6 33.3333H50.4C49.8201 33.3333 49.35 33.7997 49.35 34.375C49.35 34.9503 49.8201 35.4167 50.4 35.4167H52.5C53.6599 35.4167 54.6 36.3493 54.6 37.5C54.6 38.6507 53.6599 39.5833 52.5 39.5833H48.3C47.7201 39.5833 47.25 40.0497 47.25 40.625C47.25 41.2003 47.7201 41.6667 48.3 41.6667H50.4C51.5599 41.6667 52.5 42.5993 52.5 43.75C52.5 44.9007 51.5599 45.8333 50.4 45.8333H34.7371L23.1 43.9094V22.9167H29.4C29.5629 22.9168 29.7235 22.8794 29.8693 22.8073L36.75 19.3937V21.875C36.75 22.4503 37.2201 22.9167 37.8 22.9167H56.7C57.8599 22.9167 58.8 23.8493 58.8 25C58.8 26.1507 57.8599 27.0833 56.7 27.0833ZM58.8 39.5833V28.5979C60.107 27.8566 60.8563 26.5203 60.9 25.1293V39.5833H58.8Z" fill="black"/>
<path d="M15.1 36.25C12.5595 36.25 10.5 38.302 10.5 40.8333C10.5 43.3646 12.5595 45.4167 15.1 45.4167C17.6405 45.4167 19.7 43.3646 19.7 40.8333C19.7 38.302 17.6405 36.25 15.1 36.25ZM15.1 43.125C13.8297 43.125 12.8 42.099 12.8 40.8333C12.8 39.5676 13.8297 38.5417 15.1 38.5417C16.3703 38.5417 17.4 39.5676 17.4 40.8333C17.4 42.099 16.3703 43.125 15.1 43.125Z" fill="black"/>
</svg>
