<svg width="14" height="14" viewBox="0 0 14 14" fill="none" xmlns="http://www.w3.org/2000/svg">
<path fill-rule="evenodd" clip-rule="evenodd" d="M4.93016 6.06182C4.573 5.70886 4.53645 5.14455 4.84511 4.7485L5.44314 3.98115C5.72812 3.61548 5.72132 3.10111 5.42679 2.74308C4.20036 1.25236 3.45596 0.37659 3.17604 0.0967173C3.08926 0.0099628 2.96153 -0.0215353 2.84437 0.0149273C2.3496 0.168896 1.64987 0.699635 0.702744 1.61761C-0.0466601 2.34395 -0.21632 3.48225 0.288712 4.39548C1.29493 6.215 2.64948 7.97539 4.35134 9.67691C6.04972 11.3749 7.80034 12.7208 9.60355 13.7134C10.5152 14.2152 11.6498 14.0461 12.3754 13.3004C13.3459 12.3031 13.8785 11.6022 13.9909 11.1321C14.0176 11.0205 13.9844 10.903 13.9033 10.8218C13.6408 10.5594 12.7657 9.81614 11.2567 8.57254C10.8986 8.27744 10.3836 8.27037 10.0176 8.55553L9.25056 9.15306C8.85443 9.46167 8.29001 9.42513 7.93698 9.06804C7.43872 8.56403 6.93904 8.06153 6.43795 7.56054C5.93687 7.05956 5.43427 6.55998 4.93016 6.06182ZM10.4236 9.0764C10.5456 8.98135 10.7172 8.9837 10.8366 9.08207C12.0984 10.122 12.9187 10.8139 13.2845 11.146C13.1139 11.4939 12.6495 12.0717 11.902 12.8398C11.3837 13.3725 10.5733 13.4932 9.92211 13.1348C8.17573 12.1735 6.47438 10.8656 4.81839 9.20992C3.15872 7.55058 1.84185 5.83915 0.866745 4.07591C0.506008 3.4236 0.627194 2.61053 1.16248 2.09171C1.90554 1.37152 2.47944 0.912693 2.85814 0.721639C3.20049 1.09739 3.89026 1.91492 4.91668 3.16254C5.01486 3.28188 5.01712 3.45334 4.92213 3.57523L4.32411 4.34257C3.80967 5.00267 3.87058 5.94318 4.46585 6.53144C4.96905 7.0287 5.47073 7.52737 5.97091 8.02745C6.47109 8.52753 6.96986 9.02912 7.46723 9.53222C8.05561 10.1274 8.99631 10.1883 9.65653 9.67393L10.4236 9.0764Z" fill="white"/>
</svg>
