<svg width="14" height="15" viewBox="0 0 14 15" fill="none" xmlns="http://www.w3.org/2000/svg">
<path fill-rule="evenodd" clip-rule="evenodd" d="M6.99998 0C5.03037 0 3.43417 1.59885 3.43417 3.57143C3.43417 5.54414 5.03051 7.14286 6.99998 7.14286C8.96959 7.14286 10.5658 5.544 10.5658 3.57143C10.5658 1.59872 8.96946 0 6.99998 0ZM4.14734 3.57144C4.14734 5.14965 5.42437 6.42859 6.99999 6.42859C8.57572 6.42859 9.85264 5.14954 9.85264 3.57144C9.85264 1.99324 8.57561 0.714302 6.99999 0.714302C5.42426 0.714302 4.14734 1.99335 4.14734 3.57144ZM1.00123 14.239C2.62613 14.7473 4.62521 15 7 15C9.37479 15 11.3739 14.7473 12.9988 14.239C13.6784 14.0264 14.0973 13.3445 13.9805 12.641L13.6797 10.8293C13.4927 9.70337 12.5682 8.84725 11.4329 8.74874C10.0703 8.6305 8.59268 8.57143 7 8.57143C5.40732 8.57143 3.92974 8.6305 2.56713 8.74874C1.43182 8.84726 0.507279 9.70338 0.320323 10.8293L0.0194703 12.641C-0.0973341 13.3445 0.321647 14.0264 1.00123 14.239ZM12.7861 13.5572C11.2368 14.0419 9.30761 14.2857 6.99997 14.2857C4.69234 14.2857 2.76311 14.0419 1.21382 13.5572C0.874034 13.4509 0.664543 13.1099 0.722945 12.7582L1.0238 10.9464C1.15734 10.1422 1.81773 9.53071 2.62866 9.46034C3.96996 9.34395 5.42711 9.2857 6.99997 9.2857C8.57283 9.2857 10.03 9.34395 11.3713 9.46034C12.1822 9.5307 12.8426 10.1422 12.9762 10.9464L13.277 12.7582C13.3354 13.1099 13.1259 13.4509 12.7861 13.5572Z" fill="white"/>
</svg>
