<svg width="40" height="40" viewBox="0 0 40 40" fill="none" xmlns="http://www.w3.org/2000/svg">
<path d="M11.9385 22.7598C12.9415 24.1187 14.0937 25.3205 15.5825 26.1706C17.2684 27.1341 19.0836 27.4249 20.9977 27.3363C21.8923 27.2934 22.1612 27.0602 22.2024 26.1689C22.2301 25.5584 22.3007 24.9495 22.6012 24.4011C22.8966 23.8628 23.3449 23.7611 23.8618 24.096C24.1193 24.2649 24.3362 24.4767 24.5413 24.7032C25.0451 25.2532 25.5329 25.8226 26.0548 26.3546C26.7112 27.0227 27.4894 27.4164 28.466 27.3362L32.2495 27.3378C32.8584 27.2967 33.1752 26.55 32.8256 25.8684C32.5793 25.3927 32.2562 24.9692 31.9146 24.5586C31.1414 23.6295 30.2303 22.8383 29.369 21.9979C28.5924 21.2399 28.5433 20.7999 29.1668 19.925C29.8496 18.9694 30.5817 18.0521 31.2695 17.1016C31.9112 16.2137 32.5696 15.3271 32.9058 14.2653C33.121 13.5875 32.9306 13.2887 32.2381 13.1689C32.1183 13.1492 31.9936 13.1492 31.8721 13.1492L27.7553 13.1442C27.2481 13.1362 26.9691 13.3576 26.7901 13.8073C26.5472 14.4149 26.2976 15.0221 26.0085 15.6066C25.3555 16.9362 24.6247 18.2211 23.6007 19.3078C23.3743 19.5473 23.123 19.8512 22.7456 19.7264C22.2746 19.5541 22.1351 18.7763 22.1431 18.5137L22.1397 13.7616C22.0481 13.0838 21.8968 12.78 21.2224 12.6484H16.9464C16.377 12.6484 16.0896 12.8703 15.7841 13.2263C15.6101 13.4334 15.5559 13.5662 15.9173 13.6352C16.6261 13.7696 17.0283 14.2293 17.1334 14.9403C17.3027 16.0778 17.291 17.2199 17.1926 18.3608C17.1649 18.694 17.1073 19.0255 16.9758 19.3373C16.769 19.8281 16.4341 19.9269 15.9959 19.6248C15.6005 19.3524 15.3215 18.9684 15.0471 18.5826C14.0214 17.1329 13.204 15.5706 12.5359 13.9289C12.3438 13.4545 12.0106 13.1674 11.5085 13.159C10.2739 13.1393 9.0381 13.1364 7.80181 13.1607C7.06012 13.1737 6.83827 13.5351 7.1421 14.2095C8.48643 17.2018 9.98367 20.1104 11.9385 22.7598Z" fill="white"/>
<rect x="1" y="1" width="38" height="38" rx="4" stroke="white" stroke-width="2"/>
</svg>
